<?xml version="1.0" encoding="UTF-8"?>
<svg width="30px" height="23px" viewBox="0 0 30 23" version="1.1" xmlns="http://www.w3.org/2000/svg" xmlns:xlink="http://www.w3.org/1999/xlink">
    <!-- Generator: Sketch 49.3 (51167) - http://www.bohemiancoding.com/sketch -->
    <title>idcard - anticon copy 2</title>
    <desc>Created with Sketch.</desc>
    <defs></defs>
    <g id="7.-betalen" stroke="none" stroke-width="1" fill="none" fill-rule="evenodd">
        <g transform="translate(-295.000000, -1040.000000)" fill="#9B9B9B" id="idcard---anticon-copy-2">
            <path d="M300.859375,1059.25 C300.273435,1059.25 299.775393,1059.04492 299.365234,1058.63477 C298.955076,1058.22461 298.75,1057.72657 298.75,1057.14062 L298.75,1054.5625 C298.75,1053.76171 298.935545,1053.01953 299.306641,1052.33594 C299.677736,1051.65234 300.175778,1051.09571 300.800781,1050.66602 C300.05859,1049.94336 299.6875,1049.05469 299.6875,1048 C299.6875,1046.96484 300.053707,1046.08106 300.786133,1045.34863 C301.518558,1044.61621 302.402339,1044.25 303.4375,1044.25 C304.472661,1044.25 305.356442,1044.61621 306.088867,1045.34863 C306.821293,1046.08106 307.1875,1046.96484 307.1875,1048 C307.1875,1049.05469 306.81641,1049.94336 306.074219,1050.66602 C306.699222,1051.09571 307.197264,1051.65234 307.568359,1052.33594 C307.939455,1053.01953 308.125,1053.76171 308.125,1054.5625 L308.125,1057.14062 C308.125,1057.72657 307.919924,1058.22461 307.509766,1058.63477 C307.099607,1059.04492 306.601565,1059.25 306.015625,1059.25 L300.859375,1059.25 Z M302.265625,1046.85742 C301.953123,1047.16992 301.796875,1047.55078 301.796875,1048 C301.796875,1048.44922 301.958006,1048.83496 302.280273,1049.15723 C302.602541,1049.47949 302.988279,1049.64062 303.4375,1049.64062 C303.886721,1049.64062 304.272459,1049.47949 304.594727,1049.15723 C304.916994,1048.83496 305.078125,1048.44922 305.078125,1048 C305.078125,1047.55078 304.916994,1047.16504 304.594727,1046.84277 C304.272459,1046.52051 303.886721,1046.35938 303.4375,1046.35938 C302.988279,1046.35938 302.597658,1046.52539 302.265625,1046.85742 Z M300.859375,1056.99414 C300.859375,1057.0918 300.908203,1057.14062 301.005859,1057.14062 L305.869141,1057.14062 C305.966797,1057.14062 306.015625,1057.0918 306.015625,1056.99414 L306.015625,1054.5625 C306.015625,1053.85937 305.761721,1053.25391 305.253906,1052.74609 C304.746091,1052.23828 304.140629,1051.98438 303.4375,1051.98438 C302.734371,1051.98438 302.128909,1052.23828 301.621094,1052.74609 C301.113279,1053.25391 300.859375,1053.85937 300.859375,1054.5625 L300.859375,1056.99414 Z M322.890625,1040.5 C323.476565,1040.5 323.974607,1040.70508 324.384766,1041.11523 C324.794924,1041.52539 325,1042.02343 325,1042.60938 L325,1060.89062 C325,1061.47657 324.794924,1061.97461 324.384766,1062.38477 C323.974607,1062.79492 323.476565,1063 322.890625,1063 L297.109375,1063 C296.523435,1063 296.025393,1062.79492 295.615234,1062.38477 C295.205076,1061.97461 295,1061.47657 295,1060.89062 L295,1042.60938 C295,1042.02343 295.205076,1041.52539 295.615234,1041.11523 C296.025393,1040.70508 296.523435,1040.5 297.109375,1040.5 L322.890625,1040.5 Z M322.890625,1060.89062 L322.890625,1042.60938 L297.109375,1042.60938 L297.109375,1060.89062 L322.890625,1060.89062 Z M311.054688,1052.80469 C310.761717,1052.80469 310.512696,1052.70215 310.307617,1052.49707 C310.102538,1052.29199 310,1052.04297 310,1051.75 C310,1051.45703 310.102538,1051.20801 310.307617,1051.00293 C310.512696,1050.79785 310.761717,1050.69531 311.054688,1050.69531 L318.320312,1050.69531 C318.613283,1050.69531 318.862304,1050.79785 319.067383,1051.00293 C319.272462,1051.20801 319.375,1051.45703 319.375,1051.75 C319.375,1052.04297 319.272462,1052.29199 319.067383,1052.49707 C318.862304,1052.70215 318.613283,1052.80469 318.320312,1052.80469 L311.054688,1052.80469 Z M311.054688,1057.60938 C310.761717,1057.60938 310.512696,1057.50684 310.307617,1057.30176 C310.102538,1057.09668 310,1056.84766 310,1056.55469 C310,1056.26172 310.102538,1056.0127 310.307617,1055.80762 C310.512696,1055.60254 310.761717,1055.5 311.054688,1055.5 L316.445312,1055.5 C316.738283,1055.5 316.987304,1055.60254 317.192383,1055.80762 C317.397462,1056.0127 317.5,1056.26172 317.5,1056.55469 C317.5,1056.84766 317.397462,1057.09668 317.192383,1057.30176 C316.987304,1057.50684 316.738283,1057.60938 316.445312,1057.60938 L311.054688,1057.60938 Z M311.054688,1048 C310.761717,1048 310.512696,1047.89746 310.307617,1047.69238 C310.102538,1047.4873 310,1047.23828 310,1046.94531 C310,1046.65234 310.102538,1046.40332 310.307617,1046.19824 C310.512696,1045.99316 310.761717,1045.89062 311.054688,1045.89062 L320.195312,1045.89062 C320.488283,1045.89062 320.737304,1045.99316 320.942383,1046.19824 C321.147462,1046.40332 321.25,1046.65234 321.25,1046.94531 C321.25,1047.23828 321.147462,1047.4873 320.942383,1047.69238 C320.737304,1047.89746 320.488283,1048 320.195312,1048 L311.054688,1048 Z"></path>
        </g>
    </g>
</svg>