<?xml version="1.0" encoding="UTF-8"?>
<svg width="17px" height="23px" viewBox="0 0 17 23" version="1.1" xmlns="http://www.w3.org/2000/svg" xmlns:xlink="http://www.w3.org/1999/xlink">
    <!-- Generator: Sketch 49.3 (51167) - http://www.bohemiancoding.com/sketch -->
    <title>ion-document - Ionicons</title>
    <desc>Created with Sketch.</desc>
    <defs></defs>
    <g id="5.-OV-plus" stroke="none" stroke-width="1" fill="none" fill-rule="evenodd">
        <g id="5.-ov-plus---bestand-uploaden" transform="translate(-259.000000, -1166.000000)" fill="#000000">
            <g id="Group-2" transform="translate(231.000000, 1091.000000)">
                <path d="M44.8164062,81.6523438 C44.8554689,81.7695318 44.875,81.9453113 44.875,82.1796875 L44.875,96.4765625 C44.875,96.8671895 44.7578137,97.2187484 44.5234375,97.53125 C44.2890613,97.8437516 43.9960955,98 43.6445312,98 L29.40625,98 C29.0546857,98 28.7324233,97.8437516 28.4394531,97.53125 C28.1464829,97.2187484 28,96.8671895 28,96.4765625 L28,76.8476562 C28,76.496092 28.1464829,76.1835951 28.4394531,75.9101562 C28.7324233,75.6367174 29.0546857,75.5 29.40625,75.5 L38.78125,75.5 C39.0156262,75.5 39.1914057,75.5390621 39.3085938,75.6171875 C39.5429699,75.7343756 39.6796873,75.8124998 39.71875,75.8515625 L44.5820312,81.2421875 C44.6992193,81.3593756 44.7773436,81.496093 44.8164062,81.6523438 Z M39.3085938,78.2539062 L39.3085938,81.9453125 L42.7070312,81.9453125 L39.3085938,78.2539062 Z M29.875,96.125 L43,96.125 L43,83.8203125 L39.0742188,83.8203125 C38.6445291,83.8203125 38.2636735,83.6542985 37.9316406,83.3222656 C37.5996077,82.9902327 37.4335938,82.6093771 37.4335938,82.1796875 L37.4335938,77.375 L29.875,77.375 L29.875,96.125 Z" id="ion-document---Ionicons"></path>
            </g>
        </g>
    </g>
</svg>