<?xml version="1.0" encoding="UTF-8"?>
<svg width="37px" height="50px" viewBox="0 0 37 50" version="1.1" xmlns="http://www.w3.org/2000/svg" xmlns:xlink="http://www.w3.org/1999/xlink">
    <!-- Generator: Sketch 49.3 (51167) - http://www.bohemiancoding.com/sketch -->
    <title>female</title>
    <desc>Created with Sketch.</desc>
    <defs></defs>
    <g id="1.-persoonlijke-gegevens" stroke="none" stroke-width="1" fill="none" fill-rule="evenodd">
        <g id="1.-Persoonlijke-gegevens" transform="translate(-512.000000, -1123.000000)" fill="#E3147E">
            <g transform="translate(263.000000, 957.000000)" id="Geslacht">
                <g>
                    <g id="Vrouw" transform="translate(189.250000, 137.595604)">
                        <g id="Group-2">
                            <path d="M95.9242802,57.2374826 C95.9242802,57.9815339 95.6638662,58.613968 95.1430302,59.134804 C94.6221943,59.6556399 93.9897601,59.916054 93.2457088,59.916054 C92.2970433,59.916054 91.5530032,59.5161324 91.0135659,58.7162772 L84.6798606,49.2017683 L83.4242802,49.2017683 L83.4242802,52.884804 L90.3160213,64.3524379 C90.4834328,64.6314572 90.5671374,64.9383737 90.5671374,65.2731968 C90.5671374,65.7568302 90.3904278,66.1753528 90.0370034,66.5287772 C89.683579,66.8822016 89.2650564,67.0589111 88.7814231,67.0589111 L83.4242802,67.0589111 L83.4242802,74.6481968 C83.4242802,75.5038559 83.1173636,76.2385956 82.5035213,76.8524379 C81.8896789,77.4662803 81.1549393,77.7731968 80.2992802,77.7731968 L75.8349945,77.7731968 C74.9793355,77.7731968 74.2445958,77.4662803 73.6307534,76.8524379 C73.0169111,76.2385956 72.7099945,75.5038559 72.7099945,74.6481968 L72.7099945,67.0589111 L67.3528516,67.0589111 C66.8692183,67.0589111 66.4506957,66.8822016 66.0972713,66.5287772 C65.7438469,66.1753528 65.5671374,65.7568302 65.5671374,65.2731968 C65.5671374,64.9383737 65.6508419,64.6314572 65.8182534,64.3524379 L72.7099945,52.884804 L72.7099945,49.2017683 L71.4544141,49.2017683 L65.1207088,58.7162772 C64.5812716,59.5161324 63.8372314,59.916054 62.8885659,59.916054 C62.1445146,59.916054 61.5120804,59.6556399 60.9912445,59.134804 C60.4704086,58.613968 60.2099945,57.9815339 60.2099945,57.2374826 C60.2099945,56.6980453 60.3588025,56.2051187 60.6564231,55.7586879 L67.7992802,45.0444022 C69.1571739,43.0540649 70.7940623,42.0589111 72.7099945,42.0589111 L83.4242802,42.0589111 C85.3402124,42.0589111 86.9771008,43.0540649 88.3349945,45.0444022 L95.4778516,55.7586879 C95.7754722,56.2051187 95.9242802,56.6980453 95.9242802,57.2374826 Z M82.4756195,30.5075718 C83.7033042,31.7166553 84.3171374,33.1861346 84.3171374,34.916054 C84.3171374,36.6459733 83.7079545,38.120103 82.4895704,39.338487 C81.2711863,40.5568711 79.7970567,41.166054 78.0671374,41.166054 C76.337218,41.166054 74.8630884,40.5568711 73.6447043,39.338487 C72.4263203,38.120103 71.8171374,36.6459733 71.8171374,34.916054 C71.8171374,33.1861346 72.4263203,31.712005 73.6447043,30.4936209 C74.8630884,29.2752369 76.337218,28.666054 78.0671374,28.666054 C79.7970567,28.666054 81.2665361,29.2798871 82.4756195,30.5075718 Z" id="female---FontAwesome"></path>
                        </g>
                    </g>
                </g>
            </g>
        </g>
    </g>
</svg>