<?xml version="1.0" encoding="UTF-8"?>
<svg width="25px" height="23px" viewBox="0 0 25 23" version="1.1" xmlns="http://www.w3.org/2000/svg" xmlns:xlink="http://www.w3.org/1999/xlink">
    <!-- Generator: Sketch 49.3 (51167) - http://www.bohemiancoding.com/sketch -->
    <title>camera_alt - material</title>
    <desc>Created with Sketch.</desc>
    <defs></defs>
    <g id="3.-Profiel-foto" stroke="none" stroke-width="1" fill="none" fill-rule="evenodd">
        <g id="3.-Profiel-foto-kiezen---optie-foto-uploaden" transform="translate(-702.000000, -861.000000)" fill="#FFFFFF">
            <g id="profiel-foto" transform="translate(263.000000, 743.000000)">
                <g id="Foto-maken---profiel" transform="translate(365.000000, 98.000000)">
                    <g id="Group-2" transform="translate(71.500000, 17.000000)">
                        <path d="M15,21.77 C16.1400057,21.77 17.1899952,21.4900028 18.15,20.93 C19.1100048,20.3699972 19.8699972,19.6100048 20.43,18.65 C20.9900028,17.6899952 21.27,16.6400057 21.27,15.5 C21.27,14.3599943 20.9900028,13.3100048 20.43,12.35 C19.8699972,11.3899952 19.1100048,10.6300028 18.15,10.07 C17.1899952,9.5099972 16.1400057,9.23 15,9.23 C13.8599943,9.23 12.8100048,9.5099972 11.85,10.07 C10.8899952,10.6300028 10.1300028,11.3899952 9.57,12.35 C9.0099972,13.3100048 8.73,14.3599943 8.73,15.5 C8.73,16.6400057 9.0099972,17.6899952 9.57,18.65 C10.1300028,19.6100048 10.8899952,20.3699972 11.85,20.93 C12.8100048,21.4900028 13.8599943,21.77 15,21.77 Z M11.25,3.02 L18.75,3.02 L21.03,5.48 L25.02,5.48 C25.7000034,5.48 26.2799976,5.7299975 26.76,6.23 C27.2400024,6.7300025 27.48,7.3199966 27.48,8 L27.48,23 C27.48,23.6800034 27.2400024,24.2699975 26.76,24.77 C26.2799976,25.2700025 25.7000034,25.52 25.02,25.52 L4.98,25.52 C4.2999966,25.52 3.7200024,25.2700025 3.24,24.77 C2.7599976,24.2699975 2.52,23.6800034 2.52,23 L2.52,8 C2.52,7.3199966 2.7599976,6.7300025 3.24,6.23 C3.7200024,5.7299975 4.2999966,5.48 4.98,5.48 L8.97,5.48 L11.25,3.02 Z M11.01,15.5 C11.01,14.7799964 11.1899982,14.1150031 11.55,13.505 C11.9100018,12.8949969 12.3949969,12.4100018 13.005,12.05 C13.615003,11.6899982 14.2799964,11.51 15,11.51 C15.7200036,11.51 16.3849969,11.6899982 16.995,12.05 C17.6050031,12.4100018 18.0899982,12.8949969 18.45,13.505 C18.8100018,14.1150031 18.99,14.7799964 18.99,15.5 C18.99,16.2200036 18.8100018,16.8849969 18.45,17.495 C18.0899982,18.1050031 17.6050031,18.5899982 16.995,18.95 C16.3849969,19.3100018 15.7200036,19.49 15,19.49 C14.2799964,19.49 13.615003,19.3100018 13.005,18.95 C12.3949969,18.5899982 11.9100018,18.1050031 11.55,17.495 C11.1899982,16.8849969 11.01,16.2200036 11.01,15.5 Z" id="camera_alt---material"></path>
                    </g>
                </g>
            </g>
        </g>
    </g>
</svg>