<?xml version="1.0" encoding="UTF-8"?>
<svg width="25px" height="26px" viewBox="0 0 25 26" version="1.1" xmlns="http://www.w3.org/2000/svg" xmlns:xlink="http://www.w3.org/1999/xlink">
    <!-- Generator: Sketch 49.3 (51167) - http://www.bohemiancoding.com/sketch -->
    <title></title>
    <desc>Created with Sketch.</desc>
    <defs></defs>
    <g id="4.-automatisch-opladen" stroke="none" stroke-width="1" fill="none" fill-rule="evenodd">
        <g id="4.F.-Automatisch-opladen---foutmelding-" transform="translate(-405.000000, -850.000000)" fill="#E60000">
            <path d="M423.774414,851.80957 C425.694997,852.916347 427.212722,854.430003 428.327637,856.350586 C429.442551,858.271168 430,860.362619 430,862.625 C430,864.887381 429.442551,866.978832 428.327637,868.899414 C427.212722,870.819997 425.694997,872.337722 423.774414,873.452637 C421.853832,874.567551 419.762381,875.125 417.5,875.125 C415.237619,875.125 413.146168,874.567551 411.225586,873.452637 C409.305003,872.337722 407.787278,870.819997 406.672363,868.899414 C405.557449,866.978832 405,864.887381 405,862.625 C405,860.362619 405.557449,858.271168 406.672363,856.350586 C407.787278,854.430003 409.305003,852.912278 411.225586,851.797363 C413.146168,850.682449 415.237619,850.125 417.5,850.125 C419.762381,850.125 421.853832,850.686518 423.774414,851.80957 Z M422.504883,866.40918 L418.745117,862.625 L422.504883,858.84082 C422.68392,858.661783 422.773438,858.454266 422.773438,858.218262 C422.773438,857.982258 422.687989,857.778809 422.51709,857.60791 C422.346191,857.437011 422.138673,857.351562 421.894531,857.351562 C421.650389,857.351562 421.438803,857.432942 421.259766,857.595703 L417.5,861.379883 L413.740234,857.595703 C413.561197,857.432942 413.349611,857.351562 413.105469,857.351562 C412.861327,857.351562 412.653809,857.437011 412.48291,857.60791 C412.312011,857.778809 412.226562,857.986327 412.226562,858.230469 C412.226562,858.474611 412.31608,858.678059 412.495117,858.84082 L416.254883,862.625 L412.495117,866.40918 C412.31608,866.571941 412.226562,866.775389 412.226562,867.019531 C412.226562,867.263673 412.312011,867.471191 412.48291,867.64209 C412.653809,867.812989 412.861327,867.898438 413.105469,867.898438 C413.349611,867.898438 413.561197,867.817058 413.740234,867.654297 L417.5,863.870117 L421.259766,867.654297 C421.438803,867.817058 421.650389,867.898438 421.894531,867.898438 C422.138673,867.898438 422.346191,867.812989 422.51709,867.64209 C422.687989,867.471191 422.773438,867.263673 422.773438,867.019531 C422.773438,866.775389 422.68392,866.571941 422.504883,866.40918 Z" id=""></path>
        </g>
    </g>
</svg>