<?xml version="1.0" encoding="UTF-8"?>
<svg width="29px" height="50px" viewBox="0 0 29 50" version="1.1" xmlns="http://www.w3.org/2000/svg" xmlns:xlink="http://www.w3.org/1999/xlink">
    <!-- Generator: Sketch 49.3 (51167) - http://www.bohemiancoding.com/sketch -->
    <title></title>
    <desc>Created with Sketch.</desc>
    <defs></defs>
    <g id="1.-persoonlijke-gegevens" stroke="none" stroke-width="1" fill="none" fill-rule="evenodd">
        <g id="1.-Persoonlijke-gegevens" transform="translate(-323.000000, -1123.000000)" fill="#E3147E">
            <g transform="translate(263.000000, 957.000000)" id="Geslacht">
                <g>
                    <g id="man" transform="translate(0.000000, 137.595604)">
                        <g id="Group-2">
                            <path d="M88.7814231,47.416054 L88.7814231,59.0231968 C88.7814231,59.7672482 88.521009,60.3996823 88.0001731,60.9205183 C87.4793371,61.4413542 86.846903,61.7017683 86.1028516,61.7017683 C85.3588003,61.7017683 84.7263662,61.4413542 84.2055302,60.9205183 C83.6846943,60.3996823 83.4242802,59.7672482 83.4242802,59.0231968 L83.4242802,49.2017683 L81.6385659,49.2017683 L81.6385659,74.6481968 C81.6385659,75.5038559 81.3316494,76.2385956 80.717807,76.8524379 C80.1039647,77.4662803 79.369225,77.7731968 78.5135659,77.7731968 C77.6579069,77.7731968 76.9231672,77.4662803 76.3093249,76.8524379 C75.6954825,76.2385956 75.3885659,75.5038559 75.3885659,74.6481968 L75.3885659,61.7017683 L73.6028516,61.7017683 L73.6028516,74.6481968 C73.6028516,75.5038559 73.2959351,76.2385956 72.6820927,76.8524379 C72.0682504,77.4662803 71.3335107,77.7731968 70.4778516,77.7731968 C69.6221926,77.7731968 68.8874529,77.4662803 68.2736106,76.8524379 C67.6597682,76.2385956 67.3528516,75.5038559 67.3528516,74.6481968 L67.3528516,49.2017683 L65.5671374,49.2017683 L65.5671374,59.0231968 C65.5671374,59.7672482 65.3067233,60.3996823 64.7858874,60.9205183 C64.2650514,61.4413542 63.6326173,61.7017683 62.8885659,61.7017683 C62.1445146,61.7017683 61.5120804,61.4413542 60.9912445,60.9205183 C60.4704086,60.3996823 60.2099945,59.7672482 60.2099945,59.0231968 L60.2099945,47.416054 C60.2099945,45.9279513 60.7308226,44.663083 61.7724945,43.6214111 C62.8141664,42.5797393 64.0790347,42.0589111 65.5671374,42.0589111 L83.4242802,42.0589111 C84.9123829,42.0589111 86.1772512,42.5797393 87.2189231,43.6214111 C88.260595,44.663083 88.7814231,45.9279513 88.7814231,47.416054 Z M78.9041909,30.5075718 C80.1318756,31.7166553 80.7457088,33.1861346 80.7457088,34.916054 C80.7457088,36.6459733 80.1365259,38.120103 78.9181418,39.338487 C77.6997578,40.5568711 76.2256282,41.166054 74.4957088,41.166054 C72.7657894,41.166054 71.2916598,40.5568711 70.0732758,39.338487 C68.8548917,38.120103 68.2457088,36.6459733 68.2457088,34.916054 C68.2457088,33.1861346 68.8548917,31.712005 70.0732758,30.4936209 C71.2916598,29.2752369 72.7657894,28.666054 74.4957088,28.666054 C76.2256282,28.666054 77.6951075,29.2798871 78.9041909,30.5075718 Z" id=""></path>
                        </g>
                    </g>
                </g>
            </g>
        </g>
    </g>
</svg>