<?xml version="1.0" encoding="UTF-8"?>
<svg width="24px" height="27px" viewBox="0 0 24 27" version="1.1" xmlns="http://www.w3.org/2000/svg" xmlns:xlink="http://www.w3.org/1999/xlink">
    <!-- Generator: Sketch 49.3 (51167) - http://www.bohemiancoding.com/sketch -->
    <title>trash-o - FontAwesome</title>
    <desc>Created with Sketch.</desc>
    <defs></defs>
    <g id="5.-OV-plus" stroke="none" stroke-width="1" fill="none" fill-rule="evenodd">
        <g id="5.-ov-plus---bestand-uploaden" transform="translate(-942.000000, -1166.000000)" fill="#000000">
            <g id="Group-2" transform="translate(231.000000, 1091.000000)">
                <g id="Group" transform="translate(26.000000, 29.000000)">
                    <path d="M693.571429,56.6071429 L693.571429,66.25 C693.571429,66.4062508 693.521206,66.5345977 693.420759,66.6350446 C693.320312,66.7354916 693.191965,66.7857143 693.035714,66.7857143 L691.964286,66.7857143 C691.808035,66.7857143 691.679688,66.7354916 691.579241,66.6350446 C691.478794,66.5345977 691.428571,66.4062508 691.428571,66.25 L691.428571,56.6071429 C691.428571,56.4508921 691.478794,56.3225451 691.579241,56.2220982 C691.679688,56.1216513 691.808035,56.0714286 691.964286,56.0714286 L693.035714,56.0714286 C693.191965,56.0714286 693.320312,56.1216513 693.420759,56.2220982 C693.521206,56.3225451 693.571429,56.4508921 693.571429,56.6071429 Z M697.857143,56.6071429 L697.857143,66.25 C697.857143,66.4062508 697.80692,66.5345977 697.706473,66.6350446 C697.606026,66.7354916 697.477679,66.7857143 697.321429,66.7857143 L696.25,66.7857143 C696.093749,66.7857143 695.965402,66.7354916 695.864955,66.6350446 C695.764508,66.5345977 695.714286,66.4062508 695.714286,66.25 L695.714286,56.6071429 C695.714286,56.4508921 695.764508,56.3225451 695.864955,56.2220982 C695.965402,56.1216513 696.093749,56.0714286 696.25,56.0714286 L697.321429,56.0714286 C697.477679,56.0714286 697.606026,56.1216513 697.706473,56.2220982 C697.80692,56.3225451 697.857143,56.4508921 697.857143,56.6071429 Z M702.142857,56.6071429 L702.142857,66.25 C702.142857,66.4062508 702.092634,66.5345977 701.992188,66.6350446 C701.891741,66.7354916 701.763394,66.7857143 701.607143,66.7857143 L700.535714,66.7857143 C700.379464,66.7857143 700.251117,66.7354916 700.15067,66.6350446 C700.050223,66.5345977 700,66.4062508 700,66.25 L700,56.6071429 C700,56.4508921 700.050223,56.3225451 700.15067,56.2220982 C700.251117,56.1216513 700.379464,56.0714286 700.535714,56.0714286 L701.607143,56.0714286 C701.763394,56.0714286 701.891741,56.1216513 701.992188,56.2220982 C702.092634,56.3225451 702.142857,56.4508921 702.142857,56.6071429 Z M704.285714,68.7276786 L704.285714,52.8571429 L689.285714,52.8571429 L689.285714,68.7276786 C689.285714,68.9732155 689.324776,69.1992177 689.402902,69.405692 C689.481027,69.6121662 689.561942,69.7628343 689.645647,69.8577009 C689.729353,69.9525674 689.787946,70 689.821429,70 L703.75,70 C703.783482,70 703.842075,69.9525674 703.925781,69.8577009 C704.009487,69.7628343 704.090401,69.6121662 704.168527,69.405692 C704.246652,69.1992177 704.285714,68.9732155 704.285714,68.7276786 Z M693.035714,50.7142857 L700.535714,50.7142857 L699.732143,48.7555804 C699.654017,48.6551334 699.559152,48.5937501 699.447545,48.5714286 L694.140625,48.5714286 C694.029017,48.5937501 693.934152,48.6551334 693.856027,48.7555804 L693.035714,50.7142857 Z M708.571429,51.25 L708.571429,52.3214286 C708.571429,52.4776794 708.521206,52.6060263 708.420759,52.7064732 C708.320312,52.8069201 708.191965,52.8571429 708.035714,52.8571429 L706.428571,52.8571429 L706.428571,68.7276786 C706.428571,69.6540225 706.166297,70.4547957 705.641741,71.1300223 C705.117185,71.8052489 704.486611,72.1428571 703.75,72.1428571 L689.821429,72.1428571 C689.084818,72.1428571 688.454244,71.8164095 687.929688,71.1635045 C687.405131,70.5105994 687.142857,69.7209868 687.142857,68.7946429 L687.142857,52.8571429 L685.535714,52.8571429 C685.379464,52.8571429 685.251117,52.8069201 685.15067,52.7064732 C685.050223,52.6060263 685,52.4776794 685,52.3214286 L685,51.25 C685,51.0937492 685.050223,50.9654023 685.15067,50.8649554 C685.251117,50.7645084 685.379464,50.7142857 685.535714,50.7142857 L690.708705,50.7142857 L691.88058,47.9185268 C692.047992,47.5055783 692.349328,47.1540193 692.784598,46.8638393 C693.219868,46.5736593 693.660712,46.4285714 694.107143,46.4285714 L699.464286,46.4285714 C699.910717,46.4285714 700.35156,46.5736593 700.78683,46.8638393 C701.2221,47.1540193 701.523437,47.5055783 701.690848,47.9185268 L702.862723,50.7142857 L708.035714,50.7142857 C708.191965,50.7142857 708.320312,50.7645084 708.420759,50.8649554 C708.521206,50.9654023 708.571429,51.0937492 708.571429,51.25 Z" id="trash-o---FontAwesome"></path>
                </g>
            </g>
        </g>
    </g>
</svg>