<?xml version="1.0" encoding="UTF-8"?>
<svg width="21px" height="21px" viewBox="0 0 21 21" version="1.1" xmlns="http://www.w3.org/2000/svg" xmlns:xlink="http://www.w3.org/1999/xlink">
    <!-- Generator: Sketch 49.3 (51167) - http://www.bohemiancoding.com/sketch -->
    <title>Uitroepteken</title>
    <desc>Created with Sketch.</desc>
    <defs></defs>
    <g id="1.-persoonlijke-gegevens" stroke="none" stroke-width="1" fill="none" fill-rule="evenodd">
        <g id="1.-Persoonlijke-gegevens" transform="translate(-276.000000, -2003.000000)" fill="#000000">
            <g id="Beperking-keuze" transform="translate(262.000000, 1942.000000)">
                <g id="Waarschuwing-sentire" transform="translate(0.871094, 43.000000)">
                    <path d="M16.1499818,21.4729067 C18.1356688,19.4872196 20.528223,18.494391 23.3277161,18.494391 C26.1272093,18.494391 28.5197635,19.4872196 30.5054505,21.4729067 C32.4911375,23.4585937 33.4839661,25.8511479 33.4839661,28.650641 C33.4839661,31.4501342 32.4911375,33.8426884 30.5054505,35.8283754 C28.5197635,37.8140624 26.1272093,38.806891 23.3277161,38.806891 C20.528223,38.806891 18.1356688,37.8140624 16.1499818,35.8283754 C14.1642947,33.8426884 13.1714661,31.4501342 13.1714661,28.650641 C13.1714661,25.8511479 14.1642947,23.4585937 16.1499818,21.4729067 Z M24.4995911,33.728766 L24.4995911,31.775641 L22.1558411,31.775641 L22.1558411,33.728766 L24.4995911,33.728766 Z M24.4995911,29.431891 L24.4995911,23.181891 L22.1558411,23.181891 L22.1558411,29.431891 L24.4995911,29.431891 Z" id="Uitroepteken"></path>
                </g>
            </g>
        </g>
    </g>
</svg>