<?xml version="1.0" encoding="UTF-8"?>
<svg width="17px" height="24px" viewBox="0 0 17 24" version="1.1" xmlns="http://www.w3.org/2000/svg" xmlns:xlink="http://www.w3.org/1999/xlink">
    <!-- Generator: Sketch 49.3 (51167) - http://www.bohemiancoding.com/sketch -->
    <title>ion-document - Ionicons</title>
    <desc>Created with Sketch.</desc>
    <defs></defs>
    <g id="Symbols" stroke="none" stroke-width="1" fill="none" fill-rule="evenodd">
        <g id="uploaden-bestand" transform="translate(-52.000000, -22.000000)" fill="#FFFFFF">
            <g id="Button-upload-bestand">
                <g id="Group-3" transform="translate(52.000000, 19.347401)">
                    <path d="M16.8164062,9.65234375 C16.8554689,9.76953184 16.875,9.94531133 16.875,10.1796875 L16.875,24.4765625 C16.875,24.8671895 16.7578137,25.2187484 16.5234375,25.53125 C16.2890613,25.8437516 15.9960955,26 15.6445312,26 L1.40625,26 C1.05468574,26 0.73242334,25.8437516 0.439453125,25.53125 C0.14648291,25.2187484 0,24.8671895 0,24.4765625 L0,4.84765625 C0,4.49609199 0.14648291,4.18359512 0.439453125,3.91015625 C0.73242334,3.63671738 1.05468574,3.5 1.40625,3.5 L10.78125,3.5 C11.0156262,3.5 11.1914057,3.53906211 11.3085938,3.6171875 C11.5429699,3.73437559 11.6796873,3.8124998 11.71875,3.8515625 L16.5820312,9.2421875 C16.6992193,9.35937559 16.7773436,9.49609297 16.8164062,9.65234375 Z M11.3085938,6.25390625 L11.3085938,9.9453125 L14.7070313,9.9453125 L11.3085938,6.25390625 Z M1.875,24.125 L15,24.125 L15,11.8203125 L11.0742188,11.8203125 C10.6445291,11.8203125 10.2636735,11.6542985 9.93164062,11.3222656 C9.59960771,10.9902327 9.43359375,10.6093771 9.43359375,10.1796875 L9.43359375,5.375 L1.875,5.375 L1.875,24.125 Z" id="ion-document---Ionicons"></path>
                </g>
            </g>
        </g>
    </g>
</svg>